<?xml version="1.0" encoding="utf-8"?>
<!-- Generator: Adobe Illustrator 26.0.2, SVG Export Plug-In . SVG Version: 6.00 Build 0)  -->
<svg version="1.1" id="Layer_1" xmlns="http://www.w3.org/2000/svg" xmlns:xlink="http://www.w3.org/1999/xlink" x="0px" y="0px"
	 viewBox="0 0 175.8 175.8" style="enable-background:new 0 0 175.8 175.8;" xml:space="preserve">
<style type="text/css">
	.st0{fill:#4D4D4D;}
	.st1{fill:#F0BFB0;}
	.st2{fill:#A0827D;}
	.st3{fill:#EDBFB0;}
	.st4{fill:#917B77;}
	.st5{fill:#E4AE99;}
	.st6{fill:#B3B3B3;}
	.st7{fill:#6E6460;}
	.st8{fill:#BE9B8F;}
	.st9{fill:#F8D5CA;}
	.st10{fill:#FFFFFF;}
	.st11{fill:#ECECEC;}
</style>
<g>
	<path class="st0" d="M175.69,150.43v25.47H0.11v-25.47c0-14.06,29.55-25.46,66.01-25.46h43.55
		C146.14,124.97,175.69,136.37,175.69,150.43z"/>
	<path class="st1" d="M72.73,87.18c-0.25,0.02-0.49,0.05-0.73,0.06v-0.01C72.24,87.21,72.48,87.19,72.73,87.18z"/>
	<path class="st1" d="M79.01,76.68c-0.01,0-0.01,0-0.02,0c0-0.01,0-0.01,0-0.02L79.01,76.68z"/>
	<path class="st2" d="M49.92,24.6C56.61,10.59,68.47,3.57,83.09,0.77c11.7-2.24,22.63-0.38,31.56,8.3c1.47,1.42,2.6,3.19,3.89,4.8
		c0.26,1.69-0.93,2.45-2.09,3.23c-1.74,1.17-3.5,2.33-5.24,3.49c-1.44-0.93-2.78-0.12-4.07,0.35c-11.88,4.31-23.95,6.22-36.46,3.17
		c-1.44-0.35-2.82-0.11-4.05,0.79c-3.94-0.98-7.92-1.63-11.86-0.16C53.06,25.37,51.53,25.06,49.92,24.6z"/>
	<path class="st3" d="M72,125.15c0.04-3.24,0.07-6.48,0.11-9.71c4.99,5.14,10.87,8.43,18.05,9.65c4.23,0.72,8.42,0.09,12.61,0.57
		c-0.51,4.24-2.2,7.83-5.53,10.63C89.63,142.68,74.1,140.58,72,125.15z"/>
	<path class="st4" d="M111.21,20.58c1.75-1.16,3.5-2.32,5.24-3.49c1.15-0.77,2.35-1.53,2.09-3.23c3.97,1.12,6.13,4.14,7.69,7.64
		c4,8.97,4.38,18.48,3.97,28.09c-2.82-0.03-5.64-0.05-8.45-0.08c0-0.49,0-0.97,0-1.46c2.33-0.45,4.89,0.62,7.05-1.61
		c-2.37,0-4.74,0-7.12,0c-0.13-0.53-0.26-1.06-0.38-1.58c2.25-0.24,4.66,0.62,7.44-0.94c-3.04-0.9-5.48-0.33-7.86-0.56
		c-0.11-0.64-0.23-1.28-0.34-1.93c2.03,0.49,4.02,0.56,5.94-0.39c-2.01-0.95-4.02-1.05-6.04-0.18
		C117.37,34.1,114.29,27.34,111.21,20.58z"/>
	<path class="st4" d="M49.92,24.6c1.6,0.46,3.13,0.76,4.85,0.12c3.93-1.47,7.92-0.82,11.86,0.16c-0.59,0.68-1.19,1.35-1.76,2.03
		c-4.97,5.91-8.88,12.31-9.35,20.29c-3.49,0-6.99,0-10.48,0C43.99,39.1,45.34,31.5,49.92,24.6z M48.51,41.34
		c-0.01,0.32-0.01,0.65-0.02,0.97c2.11-0.25,4.22-0.49,6.32-0.74C52.69,41.09,50.58,40.77,48.51,41.34z"/>
	<path class="st5" d="M102.76,125.65c-4.18-0.48-8.38,0.15-12.61-0.57c-7.18-1.22-13.06-4.51-18.05-9.65
		c-0.01-1.53-0.02-3.06-0.04-4.59c2.19,0.27,3.47,2.1,5.24,3.11c7.83,4.45,15.32,4.84,22.53-1.16c0.95-0.79,1.89-1.31,3.14-1.18
		c0.01,3.87,0.02,7.73,0.03,11.6c-0.09,0.08-0.26,0.18-0.25,0.23c0.05,0.19,0.16,0.37,0.25,0.56c0.03,0.36,0.06,0.71,0.09,1.07
		C103.09,125.33,102.98,125.52,102.76,125.65z"/>
	<path class="st5" d="M52.67,62.71c1.9,3.23-0.44,6.4-0.15,9.66c0.32,3.68,1.35,7.32,0.88,11.07c-3.12,0.57-4.8-0.72-5.41-3.84
		c-1.24-6.39-2.9-12.7-3.45-19.19c0.02-1.15,0.04-2.32,0.06-3.49c0.17-0.43,0.34-0.85,0.52-1.28c0.45-0.33,0.9-0.67,1.35-1
		C51.39,55.12,52.68,58.42,52.67,62.71z"/>
	<rect x="84.41" y="135.67" class="st6" width="6.98" height="4.66"/>
	<path class="st5" d="M122.41,82.87c-0.92-2.62-0.21-5.32,0.21-7.8c0.7-4.19,0.4-8.33,0.52-12.5c-0.65-5.28,2.93-7.38,6.92-9.17
		c1.1,9.2-1.2,18.01-2.95,26.9C126.52,83.28,124.46,82.92,122.41,82.87z"/>
	<path class="st7" d="M102.76,125.65c0.22-0.13,0.33-0.33,0.32-0.57c2.19,0.27,2.22,1.65,1.87,3.39
		c-1.66,8.08-8.73,13.63-17.39,13.58c-8.75-0.06-15.88-5.6-17.49-13.53c-0.36-1.77-0.21-3.1,1.93-3.36
		c2.11,15.42,17.63,17.53,25.23,11.13C100.56,133.48,102.25,129.89,102.76,125.65z"/>
	<path class="st4" d="M130.05,53.4c-3.99,1.78-7.57,3.88-6.92,9.17c-1.15,0.16-2.32,0.52-1.92-1.51c0.33-1.68,0.3-3.43,0.42-5.14
		c0-0.58,0-1.15,0-1.73c0.04-1.01,0.07-2.02,0.11-3.03c2.82-0.03,5.64-0.05,8.46-0.08C130.15,51.85,130.1,52.63,130.05,53.4z"/>
	<path class="st2" d="M45.03,47.21c3.49,0,6.99,0,10.48,0c0.36,1.65-0.46,3.12-0.69,4.68c-2.93,0.51-5.89-1.08-8.82,0.11
		C45.39,50.47,44.74,48.94,45.03,47.21z"/>
	<path class="st4" d="M46.01,52.01c2.92-1.19,5.88,0.39,8.82-0.11c0.04,0.76,0.09,1.52,0.13,2.29c-1.91,0.35-1.88,1.26-0.73,2.5
		c-0.68,1.97,1.52,4.69-1.57,6.03c0.01-4.3-1.28-7.59-6.22-8.08c-0.01-0.16-0.04-0.33-0.07-0.49
		C46.26,53.44,46.14,52.72,46.01,52.01z"/>
	<path class="st8" d="M130.2,51.07c-2.82,0.03-5.64,0.05-8.46,0.08c0-0.55,0-1.09,0-1.64c2.82,0.03,5.64,0.05,8.45,0.08
		C130.2,50.08,130.2,50.58,130.2,51.07z"/>
	<path class="st2" d="M44.59,56.92c-0.02,1.17-0.04,2.34-0.06,3.49C44.54,59.23,44.56,58.07,44.59,56.92z"/>
	<path class="st2" d="M46.38,54.15c0.03,0.16,0.06,0.33,0.07,0.49c-0.45,0.33-0.9,0.67-1.35,1C44.97,54.66,45.7,54.43,46.38,54.15z"
		/>
	<path class="st3" d="M103,124.01c-0.09-0.19-0.2-0.36-0.25-0.56c-0.01-0.05,0.16-0.15,0.25-0.23C103,123.48,103,123.74,103,124.01z
		"/>
	<path class="st9" d="M79,76.67L79,76.67l0.01,0.02C79.01,76.68,79,76.68,79,76.67z M96.79,76.67L96.79,76.67L96.79,76.67
		L96.79,76.67L96.79,76.67z"/>
	<path class="st5" d="M72.73,87.18c-0.25,0.02-0.49,0.05-0.73,0.06v-0.01C72.24,87.21,72.48,87.19,72.73,87.18z"/>
	<path class="st5" d="M79.01,76.68c-0.01,0-0.01,0-0.02,0c0-0.01,0-0.01,0-0.02H79C79,76.68,79.01,76.68,79.01,76.68z"/>
	<rect x="96.79" y="76.67" class="st5" width="0.01" height="0.01"/>
	<path class="st5" d="M79.01,76.68c-0.01,0-0.01,0-0.02,0c0-0.01,0-0.01,0-0.02H79C79,76.68,79.01,76.68,79.01,76.68z"/>
	<rect x="96.79" y="76.67" class="st5" width="0.01" height="0.01"/>
	<path class="st5" d="M107.12,82.79c-0.1-0.05-0.22-0.1-0.32-0.15l0.02-0.02C106.92,82.68,107.02,82.74,107.12,82.79z"/>
	<path class="st4" d="M117.85,55.96c-0.28,0.2-0.56,0.4-0.84,0.61C117,55.95,117.3,55.78,117.85,55.96z"/>
	<path class="st8" d="M121.74,48.05c-0.02-0.54-0.04-1.07-0.06-1.61c2.37,0,4.74,0,7.12,0C126.63,48.68,124.08,47.6,121.74,48.05z"
		/>
	<path class="st8" d="M121.3,44.86c-0.14-0.5-0.28-1.01-0.42-1.51c2.38,0.23,4.82-0.34,7.86,0.56
		C125.96,45.48,123.55,44.62,121.3,44.86z"/>
	<path class="st8" d="M120.54,41.43c-0.03-0.19-0.06-0.39-0.09-0.58c2.02-0.86,4.02-0.75,6.03,0.19
		C124.56,41.99,122.56,41.92,120.54,41.43z"/>
	<path class="st8" d="M48.51,41.34c2.07-0.57,4.17-0.25,6.3,0.24c-2.11,0.25-4.22,0.49-6.32,0.74
		C48.5,41.98,48.51,41.66,48.51,41.34z"/>
	<path class="st3" d="M124.46,62.34c-4.32,0.8-0.33-11.71-1.44-15.06c-2.03-7.43-6.63-29.8-15.15-28.15
		C63.17,34.16,62.9,1.74,51.34,62.49C50,87.75,56.18,100.58,76.9,115.65C104.18,130.43,128.66,85.94,124.46,62.34z M106.79,82.64
		c0.06-0.02,0.16,0.06,0.25,0.12C106.96,82.72,106.88,82.68,106.79,82.64z"/>
	<path class="st3" d="M107.04,82.75c-0.09-0.03-0.16-0.08-0.25-0.12C106.86,82.61,106.96,82.7,107.04,82.75z"/>
	<polygon class="st10" points="76.52,149.63 65.79,125.09 71.73,119.37 87.17,135.68 	"/>
	<polygon class="st10" points="98.51,149.63 109.24,125.09 103.3,119.37 87.85,135.68 	"/>
	<path class="st11" d="M62.92,33.8c-0.62-0.27-1.23-0.4-1.24-0.57c-0.03-0.46,0.07-1.02,0.33-1.39c2.35-3.28,5.85-4.64,9.58-5.54
		c0.3-0.07,0.83,0.08,0.99,0.31c0.17,0.25,0.14,0.98,0.01,1.04C69,29.16,65.52,30.84,62.92,33.8z"/>
</g>
</svg>
