<?xml version="1.0" encoding="utf-8"?>
<!-- Generator: Adobe Illustrator 26.0.2, SVG Export Plug-In . SVG Version: 6.00 Build 0)  -->
<svg version="1.1" id="Layer_1" xmlns="http://www.w3.org/2000/svg" xmlns:xlink="http://www.w3.org/1999/xlink" x="0px" y="0px"
	 viewBox="0 0 175.8 175.8" style="enable-background:new 0 0 175.8 175.8;" xml:space="preserve">
<style type="text/css">
	.st0{fill:#4D4D4D;}
	.st1{fill:#7B6D4B;}
	.st2{fill:#6B5D41;}
	.st3{fill:#F6C3C3;}
	.st4{fill:#EBACAC;}
	.st5{fill:#1E1E1E;}
	.st6{fill:#ECECEC;}
</style>
<g>
	<path class="st0" d="M176,149.98V176H-1.19v-26.02c0-14.37,29.82-26.01,66.62-26.01h43.95C146.18,123.97,176,135.61,176,149.98z"/>
	<path class="st1" d="M54.35,52.99c-1.06,3.35-0.27,6.76-0.42,10.15c-0.08,1.89,1.03,4.06-1.1,5.63c-0.52-4.21-2.19-8.13-3.5-12.13
		c-0.78-2.75-1.38-5.55-2.36-8.23c-3.92-10.7-1.37-20.89,2.65-30.99C53.08,8.69,59.8,3.48,69.49,1.31
		c10.88-2.44,21.37-1.49,31.42,3.03c4.31,1.94,8.04,4.65,10.73,8.42c0.86,3.5-1.99,5.19-4.13,7.23c-2.54,0.67-4.89,0.21-7.34-0.62
		c-8.65-2.92-17.52-4.19-26.74-2.91c-8.4,1.17-15.58,6.04-16.13,12.1C56.55,36.73,57.3,45.04,54.35,52.99z"/>
	<path class="st2" d="M107.5,19.99c2.14-2.04,4.99-3.73,4.13-7.23c3.93-0.5,6.46,1.49,8.87,4.03c10.68,11.24,12.39,23.95,7.48,37.81
		c-0.26,0.72-0.3,1.51-0.44,2.26c-2.2,3.91-5.86,7.13-6.47,11.78c-1.01,1.43-1.03,0.47-1.04-0.38c-0.07-5.34,0.51-10.69-0.19-16.03
		c-1.86-8.21-5.85-15.93-6.62-24.42c-0.15-1.62-1.4-3.04-2.69-4.26C109.4,22.47,107.94,21.6,107.5,19.99z"/>
	<path class="st3" d="M70.52,123.57c0.04-3.07,0.07-6.15,0.11-9.22c3.17,0.72,4.53,3.6,7.16,5.08c8.09,4.55,17.15,4.4,26.04,5.15
		c-1.61,7.4-6.27,12.01-13.15,13.27C81.42,139.54,71.63,134.09,70.52,123.57z"/>
	<path class="st4" d="M103.83,124.58c-8.9-0.75-17.95-0.6-26.04-5.15c-2.63-1.48-3.99-4.36-7.16-5.08
		c-0.02-1.78-0.05-3.56-0.07-5.34c5.27,3.44,10.71,5.7,17.58,5.6c6.34-0.09,11.03-2.73,15.91-5.6c0.02,4.85,0.03,9.69,0.05,14.54
		C104.01,123.89,103.92,124.23,103.83,124.58z"/>
	<path class="st4" d="M49.33,56.63c1.32,4.01,2.98,7.93,3.5,12.13c1.01,4.57,2.23,9.11,1.7,13.83c-1.86,0.03-3-0.91-4.08-2.24
		c-5.05-6.2-6.48-13.58-7.32-20.92C42.73,55.9,46.45,56.14,49.33,56.63z"/>
	<path class="st4" d="M121.08,68.65c0.6-4.66,4.27-7.87,6.47-11.78c3.57-0.16,4.39,1.07,3.73,4.46c-1.27,6.61-2.6,13.08-6.91,18.7
		c-1.12,1.46-2.23,2.61-4.29,2.57c0.19-3.98-0.71-8.08,1.51-11.86C121.97,70.1,121.74,69.24,121.08,68.65z"/>
	<path class="st5" d="M103.83,124.58c0.09-0.34,0.18-0.69,0.27-1.03c2.31,0.25,2.48,1.55,2.1,3.34
		c-1.69,7.93-9.54,13.79-18.67,13.84c-9.28,0.05-17.4-5.86-19.12-13.85c-0.38-1.77-0.26-3.1,2.11-3.3
		c1.11,10.51,10.91,15.97,20.17,14.27C97.57,136.58,102.23,131.97,103.83,124.58z"/>
	<path class="st3" d="M121.12,68.62c-1.05,1.46-1.05,0.49-1.05-0.32c-0.09-5.36,0.44-10.72-0.18-16.07
		c-1.93-8.2-5.88-15.91-6.67-24.44c-0.09-1.62-1.4-3-2.63-4.22c-1.14-1.14-2.63-1.95-3.07-3.57c-2.55,0.65-4.92,0.24-7.37-0.65
		c-8.6-2.92-17.47-4.14-26.68-2.92c-8.43,1.22-15.62,6.09-16.15,12.1c-0.79,8.2,0,16.56-2.98,24.44c-1.05,3.41-0.26,6.82-0.44,10.15
		c0,1.95,1.05,4.06-1.05,5.68c0.97,4.55,2.19,9.09,1.67,13.8c-0.26,7.63,2.02,14.13,8.51,19.24c2.81,2.11,5.09,4.79,7.55,7.14
		c5.27,3.49,10.71,5.76,17.55,5.68c6.41-0.16,11.06-2.76,15.97-5.68c2.46-2.35,4.74-5.03,7.46-7.14c6.49-5.11,8.78-11.61,8.51-19.24
		c0.18-3.98-0.7-8.04,1.49-11.85C121.99,70.08,121.73,69.27,121.12,68.62z M65.65,29.82c-0.7-0.32-1.32-0.41-1.32-0.57
		c-0.09-0.49,0.09-1.06,0.35-1.38c2.46-3.25,6.23-4.63,10.27-5.52c0.26-0.08,0.88,0.08,1.05,0.32c0.18,0.24,0.18,0.97,0,1.06
		C72.14,25.19,68.45,26.81,65.65,29.82z M75.39,94.27c1.58,1.06,3.42,1.87,5.44,2.52C78.81,96.22,76.97,95.41,75.39,94.27z"/>
	<path class="st4" d="M68.82,82.55c0.28-0.18,0.56-0.36,0.85-0.55c0.26,0.88-0.56,0.37-0.83,0.56
		C68.83,82.56,68.82,82.55,68.82,82.55z"/>
	<path class="st6" d="M65.63,29.78c-0.66-0.27-1.31-0.4-1.33-0.56c-0.03-0.45,0.08-1.01,0.36-1.38c2.52-3.25,6.26-4.6,10.27-5.49
		c0.33-0.07,0.89,0.08,1.06,0.31c0.18,0.24,0.15,0.98,0.01,1.03C72.15,25.18,68.42,26.85,65.63,29.78z"/>
</g>
</svg>
