<?xml version="1.0" encoding="utf-8"?>
<!-- Generator: Adobe Illustrator 26.0.2, SVG Export Plug-In . SVG Version: 6.00 Build 0)  -->
<svg version="1.1" id="Layer_1" xmlns="http://www.w3.org/2000/svg" xmlns:xlink="http://www.w3.org/1999/xlink" x="0px" y="0px"
	 viewBox="0 0 175.8 175.8" style="enable-background:new 0 0 175.8 175.8;" xml:space="preserve">
<style type="text/css">
	.st0{fill:#4D4D4D;}
	.st1{fill:#F7BFAE;}
	.st2{fill:#F7B09C;}
	.st3{fill:#6C6A69;}
	.st4{fill:#925338;}
</style>
<path class="st0" d="M175.8,154.63V176H0v-21.37c0-11.8,29.59-21.36,66.1-21.36h43.6C146.21,133.26,175.8,142.82,175.8,154.63z"/>
<g>
	<path class="st1" d="M71.47,132.51c0.08-3.17,0.16-6.35,0.24-9.52c4.95,3.79,9.87,7.53,16.16,9.04c5.59,1.34,11.38,0.6,16.93,2.01
		C102.58,152.22,74.37,154.83,71.47,132.51z"/>
	<path class="st2" d="M104.8,134.03c-5.55-1.41-11.34-0.67-16.93-2.01c-6.29-1.51-11.21-5.24-16.16-9.04
		c-0.04-1.38-0.07-2.75-0.11-4.13c13.42,6.91,20,7,33.43,0c0.05,4.54,0.1,9.07,0.15,13.61C105.05,132.99,104.93,133.51,104.8,134.03
		z"/>
	<path class="st3" d="M104.8,134.03c0.12-0.52,0.25-1.05,0.37-1.57c2.2,0.72,2.47,2.12,1.93,4.25c-2.18,8.64-9.62,14.56-18.56,14.55
		c-9.23-0.01-16.82-5.87-19.04-14.55c-0.54-2.12-0.29-3.55,1.96-4.21c1.81,15.29,16.36,18.87,25.06,13.87
		C101.32,143.62,103.96,139.43,104.8,134.03z"/>
	<path class="st1" d="M127.8,58.43c-0.33,0.54-0.65,1.07-0.97,1.62c4.06,1.07,5.82,8.39,1.9,9.82c-1.88-1.95,2.51-7.37-3.61-7.26
		c-3.98,2.26-1.41,7.13-4.44,9.96c-0.18-7.46-1.4-14.89,0.81-22.32c1.86-4.67-0.88-7.92-3.83-11.4
		c-1.99-10.85-26.14-3.59-34.54-8.01c-4.65-1.36-8.79,4.09-13.65,1.37c-1.61-0.64-2.97,0.23-4.31,0.18
		c-5.65-0.21-4.91,5.36-7.55,7.79c-5.46,5.37,0.94,22.39-0.97,32.55c-3.48-3.21-0.64-8.07-4.47-10.06
		c-7.24-0.62-2.05,5.57-4.42,7.24c-3.8-2.87-2.44-8.5,3.61-9.69c-3.32-5.12-10.11-1.94-7.84,4.36c2.01,5.6,5.52,20.37,11.21,21.6
		c8.28,52.55,59.05,52.23,67.2,0C127.02,86.14,140.97,53.72,127.8,58.43z M53.06,76.88c-2.68-2.05-1.5-5.51-2.89-8.08
		C53.72,62.35,53.26,74.62,53.06,76.88z M123.57,76.88c-0.19-2.24-0.71-14.5,2.9-8.07C125.05,71.35,126.24,74.83,123.57,76.88z"/>
	<path class="st4" d="M125.12,62.61c-3.98,2.25-1.41,7.13-4.44,9.96c-0.17-7.46-1.41-14.89,0.81-22.31
		c1.04-3.51,0.73-6.82-2.34-9.41c-0.62-0.52-1.07-1.27-1.49-1.99c-1.09-1.89-0.19-4.95-4.17-5.05c-2.3-0.06-4.93-0.31-7.04-0.79
		c-7.74-1.77-15.8,0.82-23.33-2.17c-1.65-0.65-3.23-0.36-4.8,0.53c-2.8,1.58-5.83,2.02-8.85,0.84c-1.61-0.63-2.97,0.24-4.31,0.19
		c-5.65-0.21-4.91,5.36-7.56,7.79c-3.46,3.17-2.7,6.97-1.75,11.04c1.58,6.81,0.41,13.76,0.78,21.51c-3.48-3.22-0.64-8.07-4.48-10.07
		c-0.1-0.88,0.21-1.88-0.81-2.45c-0.65-0.8-1.3-1.59-1.94-2.39c-0.22-2.6-1.79-4.65-2.92-6.86c-2.84-5.57-0.34-11.13-0.02-16.65
		c0.49-8.45,4.21-15.26,11.39-20.09c1.18-0.8,1.73-2.49,2.72-3.63c0.9-1.04,1.92-2.61,3.03-2.74c7.77-0.97,13.29-7.76,21.48-7.85
		c7.06-0.07,13.69,0.56,19.12,5.51c1.29,1.18,2.71,1.37,4.19,1.51c2.15,0.2,4.59,0.47,5.71,2.19c3.04,4.69,7.9,7.52,11.17,12.09
		c6.55,9.15,6.06,19.14,5.27,29.39c-0.22,2.86-3.2,4.67-2.74,7.72c-0.32,0.54-0.64,1.08-0.97,1.62
		C125.65,60.49,125.06,61.33,125.12,62.61z"/>
	<path class="st2" d="M51.34,60.22c1.02,0.57,0.72,1.58,0.81,2.45c-4.28-0.44-4.47,2.13-3.88,5.27c0.14,0.76,0.73,1.75-0.54,1.98
		c-1.13,0.2-1.14-0.85-1.41-1.63C44.82,63.88,46,61.96,51.34,60.22z"/>
	<path class="st2" d="M125.12,62.61c-0.06-1.28,0.53-2.12,1.71-2.57c3.44,1.67,4.92,4.18,3.52,8.01c-0.32,0.87-0.19,2.22-1.62,1.82
		c-1.18-0.33-0.42-1.35-0.33-2.1C128.75,65.14,129.03,62.54,125.12,62.61z"/>
	<path class="st2" d="M123.56,76.88c-0.02-0.84-0.05-1.69-0.07-2.53c0.02-1.78,0.02-3.57,0.07-5.35c0.03-0.97,0.06-2.08,1.48-1.92
		c0.94,0.11,1.68,1.27,1.43,1.72C125.05,71.36,126.24,74.83,123.56,76.88z"/>
	<path class="st2" d="M53.13,73.51c-0.02,1.12-0.04,2.25-0.06,3.37c-2.68-2.05-1.51-5.51-2.89-8.08c-0.29-0.54,0.59-1.9,1.81-1.74
		c1.04,0.13,1.06,1.1,1.08,1.93C53.11,70.5,53.11,72,53.13,73.51z"/>
</g>
</svg>
