<?xml version="1.0" encoding="UTF-8" standalone="no"?><!DOCTYPE svg PUBLIC "-//W3C//DTD SVG 1.1//EN" "http://www.w3.org/Graphics/SVG/1.1/DTD/svg11.dtd"><svg width="100%" height="100%" viewBox="0 0 733 733" version="1.1" xmlns="http://www.w3.org/2000/svg" xmlns:xlink="http://www.w3.org/1999/xlink" xml:space="preserve" xmlns:serif="http://www.serif.com/" style="fill-rule:evenodd;clip-rule:evenodd;stroke-linejoin:round;stroke-miterlimit:2;"><g><path d="M161.247,500.068l-32.407,91.5l47.657,53.375l78.155,36.218l111.598,30.5l96.183,-15.25l81.589,-26.224l59.965,-43.1l27.484,-57.466l-13.742,-83.077l6.832,-205.935l-123.913,-146.4l-123.99,-22.447l-122.975,25.375l-96.624,70.272l14.64,172.751l-6.832,53.68l-3.62,66.228" style="fill:#fff;"/><path id="Avatar" d="M732.5,366.25c-0,202.27 -163.979,366.25 -366.25,366.25c-202.271,-0 -366.25,-163.98 -366.25,-366.25c-0,-202.27 163.979,-366.25 366.25,-366.25c202.271,-0 366.25,163.98 366.25,366.25Zm-478.744,206.558c-8.405,2.256 -16.726,4.771 -24.996,7.381c-23.085,7.317 -45.889,15.488 -68.526,24.062c58.777,51.121 136.188,82.468 221.339,82.468c81.381,-0 155.837,-28.494 213.583,-75.635c-29.993,-13.537 -72.33,-27.204 -72.33,-27.204c-50.338,-9.396 -65.567,-20.613 -65.567,-20.613c-16.161,-7.156 -13.387,-74.812 -13.387,-74.812c24.928,-3.143 23.55,-77.52 23.55,-77.52c17.539,10.749 18.933,-11.652 18.933,-11.652c0.913,-8.51 5.53,-24.191 5.53,-24.191c17.09,-52.427 -7.856,-39.888 -7.856,-39.888c13.851,-51.073 7.856,-94.974 7.856,-94.974c-2.989,-21.854 -13.402,-40.033 -32.186,-52.733c-6.362,-4.303 -13.27,-7.833 -20.494,-10.556c-9.832,-3.707 -20.014,-8.719 -30.095,-11.411c-8.222,-2.208 -16.675,-3.497 -25.161,-4.303c-9.351,-0.87 -18.885,-1.289 -28.268,-0.757c-8.785,-0 -12.937,5.383 -12.937,5.383c-1.33,1.692 -12.673,3.755 -15.28,4.947c-4.651,2.112 -9.186,4.481 -13.62,6.995c-11.26,6.43 -21.274,14.73 -31.754,22.241c-8.188,5.866 -18.585,9.798 -24.431,18.243c-5.1,7.382 -7.906,16.085 -9.499,24.755c-1.811,9.928 -2.974,21.661 -0.98,31.685c2.291,11.652 5.53,63.628 5.53,63.628c-18.468,-3.578 -8.305,22.853 -8.305,22.853c3.688,4.931 8.77,31.813 8.77,31.813c4.617,38.986 24.014,23.305 24.014,23.305c-3.239,68.994 20.778,72.572 20.778,72.572c3.223,40.323 -4.617,63.627 -4.617,63.627c-5.862,14.924 -25.942,16.633 -39.594,20.291Z" style="fill:url(#_Linear1);"/></g><defs><linearGradient id="_Linear1" x1="0" y1="0" x2="1" y2="0" gradientUnits="userSpaceOnUse" gradientTransform="matrix(4.06245e-14,-663.449,-663.449,-4.06245e-14,366.25,732.5)"><stop offset="0" style="stop-color:#bbbbbd;stop-opacity:1"/><stop offset="1" style="stop-color:#66656a;stop-opacity:1"/></linearGradient></defs></svg>